<svg width="32" height="32" viewBox="0 0 32 32" fill="currentColor" xmlns="http://www.w3.org/2000/svg">
    <path fill-rule="evenodd" clip-rule="evenodd"
          d="M15.8934 4.96803L11.5162 7.06298L11.9553 9.39786L7.16964 10.8912L8.55083 19.8762C9.21648 19.9893 10.1775 20.3205 10.7664 21.3744C11.3204 22.3659 11.3746 23.2321 11.3228 23.8573L15.8934 26.8437L20.4639 23.8573C20.4122 23.2321 20.4663 22.3659 21.0205 21.3744C21.6094 20.3205 22.5703 19.9893 23.236 19.8762L24.6172 10.8912L19.8316 9.39786L20.2706 7.06298L15.8934 4.96803ZM9.55378 24.6631L15.8934 28.7999L22.2331 24.6631L22.1381 24.1214C22.0584 23.6668 21.9657 23.0277 22.4319 22.1934C22.7941 21.5452 23.469 21.498 23.9952 21.4623L24.6431 21.4183L26.9867 6.75495L23.5167 7.88353L23.3505 8.69235L21.7012 8.25018L22.1112 6.07075L15.8934 3.19992L9.67565 6.07075L10.0856 8.25018L8.4363 8.69235L8.27019 7.88353L4.80005 6.75495L7.14376 21.4183L7.79162 21.4623C8.31781 21.498 8.99266 21.5452 9.35487 22.1934C9.82104 23.0277 9.72836 23.6668 9.64873 24.1214L9.55378 24.6631ZM15.3766 7.26281L15.8934 13.1314L16.4102 7.26282L17.61 6.81138L19.3451 7.6014L18.939 10.0279L23.7197 11.495L22.5752 19.0942C22.5752 19.0942 21.3569 19.1693 20.3787 20.6742C19.4005 22.179 19.6404 23.4955 19.6404 23.4955L15.8934 25.8468L12.1464 23.4955C12.1464 23.4955 12.3864 22.179 11.4081 20.6741C10.4298 19.1693 9.21154 19.0942 9.21154 19.0942L8.06714 11.495L12.8478 10.0278L12.4417 7.60138L14.1768 6.81138L15.3766 7.26281ZM14.8413 15.2945L15.8934 23.6085L16.9455 15.2946L22.7229 11.9276L15.8934 13.9591L9.06388 11.9276L14.8413 15.2945Z"
          fill="white"></path>
</svg>
